HIERARCHY
ROOT Hips
{
	OFFSET 0.00000 0.00000 0.00000
	CHANNELS 6 Xposition Yposition Zposition Zrotation Yrotation Xrotation 
	JOINT LHipJoint
	{
		OFFSET 0 0 0
		CHANNELS 3 Zrotation Yrotation Xrotation
		JOINT LeftUpLeg
		{
			OFFSET 1.44960 -1.75505 0.85172
			CHANNELS 3 Zrotation Yrotation Xrotation
			JOINT LeftLeg
			{
				OFFSET 2.40573 -6.60971 0.00000
				CHANNELS 3 Zrotation Yrotation Xrotation
				JOINT LeftFoot
				{
					OFFSET 2.58773 -7.10974 0.00000
					CHANNELS 3 Zrotation Yrotation Xrotation
					JOINT LeftToeBase
					{
						OFFSET 0.18252 -0.50147 1.77316
						CHANNELS 3 Zrotation Yrotation Xrotation
						End Site
						{
							OFFSET 0.00000 -0.00000 0.92990
						}
					}
				}
			}
		}
	}
	JOINT RHipJoint
	{
		OFFSET 0 0 0
		CHANNELS 3 Zrotation Yrotation Xrotation
		JOINT RightUpLeg
		{
			OFFSET -1.40744 -1.75505 0.85172
			CHANNELS 3 Zrotation Yrotation Xrotation
			JOINT RightLeg
			{
				OFFSET -2.43714 -6.69600 0.00000
				CHANNELS 3 Zrotation Yrotation Xrotation
				JOINT RightFoot
				{
					OFFSET -2.51650 -6.91404 0.00000
					CHANNELS 3 Zrotation Yrotation Xrotation
					JOINT RightToeBase
					{
						OFFSET -0.25383 -0.69740 1.96384
						CHANNELS 3 Zrotation Yrotation Xrotation
						End Site
						{
							OFFSET -0.00000 -0.00000 1.04244
						}
					}
				}
			}
		}
	}
	JOINT LowerBack
	{
		OFFSET 0 0 0
		CHANNELS 3 Zrotation Yrotation Xrotation
		JOINT Spine
		{
			OFFSET 0.00579 2.14458 -0.24367
			CHANNELS 3 Zrotation Yrotation Xrotation
			JOINT Spine1
			{
				OFFSET 0.05899 2.16316 -0.04515
				CHANNELS 3 Zrotation Yrotation Xrotation
				JOINT Neck
				{
					OFFSET 0 0 0
					CHANNELS 3 Zrotation Yrotation Xrotation
					JOINT Neck1
					{
						OFFSET -0.01650 1.59577 0.24841
						CHANNELS 3 Zrotation Yrotation Xrotation
						JOINT Head
						{
							OFFSET -0.01016 1.63072 -0.17782
							CHANNELS 3 Zrotation Yrotation Xrotation
							End Site
							{
								OFFSET -0.00250 1.64111 -0.08717
							}
						}
					}
				}
				JOINT LeftShoulder
				{
					OFFSET 0 0 0
					CHANNELS 3 Zrotation Yrotation Xrotation
					JOINT LeftArm
					{
						OFFSET 3.17745 0.95174 -0.45729
						CHANNELS 3 Zrotation Yrotation Xrotation
						JOINT LeftForeArm
						{
							OFFSET 4.93485 -0.00000 0.00000
							CHANNELS 3 Zrotation Yrotation Xrotation
							JOINT LeftHand
							{
								OFFSET 3.41719 -0.00000 -0.00000
								CHANNELS 3 Zrotation Yrotation Xrotation
								JOINT LeftFingerBase
								{
									OFFSET 0 0 0
									CHANNELS 3 Zrotation Yrotation Xrotation
									JOINT LeftHandIndex1
									{
										OFFSET 0.62410 -0.00000 -0.00000
										CHANNELS 3 Zrotation Yrotation Xrotation
										End Site
										{
											OFFSET 0.50317 -0.00000 -0.00000
										}
									}
								}
								JOINT LThumb
								{
									OFFSET 0 0 0
									CHANNELS 3 Zrotation Yrotation Xrotation
									End Site
									{
										OFFSET 0.51085 -0.00000 0.51085
									}
								}
							}
						}
					}
				}
				JOINT RightShoulder
				{
					OFFSET 0 0 0
					CHANNELS 3 Zrotation Yrotation Xrotation
					JOINT RightArm
					{
						OFFSET -2.87924 1.13038 -0.75204
						CHANNELS 3 Zrotation Yrotation Xrotation
						JOINT RightForeArm
						{
							OFFSET -5.22034 -0.00000 0.00000
							CHANNELS 3 Zrotation Yrotation Xrotation
							JOINT RightHand
							{
								OFFSET -3.41809 -0.00000 -0.00000
								CHANNELS 3 Zrotation Yrotation Xrotation
								JOINT RightFingerBase
								{
									OFFSET 0 0 0
									CHANNELS 3 Zrotation Yrotation Xrotation
									JOINT RightHandIndex1
									{
										OFFSET -0.77534 -0.00000 -0.00000
										CHANNELS 3 Zrotation Yrotation Xrotation
										End Site
										{
											OFFSET -0.62510 -0.00000 -0.00000
										}
									}
								}
								JOINT RThumb
								{
									OFFSET 0 0 0
									CHANNELS 3 Zrotation Yrotation Xrotation
									End Site
									{
										OFFSET -0.63464 -0.00000 0.63464
									}
								}
							}
						}
					}
				}
			}
		}
	}
}
MOTION
Frames: 9
Frame Time: .0083333
0.7276 17.6089 -28.8952 1.7151 1.5694 2.8850 0.0000 0.0000 0.0000 -25.1276 -1.9705 -13.6385 0.8866 6.0020 16.7901 0.0539 -11.5541 -8.8607 0.5251 4.6438 12.8953 0.0000 0.0000 0.0000 16.0167 -1.5606 -9.6487 -10.3007 -17.5755 60.4886 0.1283 -9.3226 -10.6824 -1.2229 -7.0139 19.7566 -5.0135 1.0425 6.4506 0.3744 0.9938 -1.3186 3.1004 0.6476 -5.0931 -3.8898 -2.4340 -22.0484 0.9775 -2.2873 14.4360 0.6552 -1.2019 8.1348 -0.0000 -0.0000 0.0000 -83.2826 10.3559 21.3146 17.3156 -27.2720 -4.2309 -0.0000 -0.0000 3.4210 2.5693 42.1085 1.7235 -7.1250 0.0000 -0.0000 -45.8415 66.5983 -26.0902 -0.0000 -0.0000 0.0000 81.0388 5.0347 0.7689 -9.2452 15.5503 -1.2650 0.0000 -0.0000 -11.8285 -16.0302 26.0072 -7.1805 7.1250 -0.0000 -0.0000 8.3089 -3.3095 7.9002
0.7423 17.6063 -28.8021 1.7984 1.9791 2.6961 0.0000 0.0000 0.0000 -25.3346 -1.8559 -12.9948 0.8763 5.9681 16.6920 0.0745 -11.4834 -9.0956 0.5423 4.7182 13.1064 0.0000 0.0000 0.0000 15.8899 -1.6492 -10.6378 -10.6905 -17.7803 61.7724 0.1072 -9.0781 -10.7492 -1.1701 -6.8663 19.3200 -5.2146 0.8676 6.5019 0.4140 0.7444 -1.2550 3.2827 0.5282 -5.0364 -3.7335 -2.3687 -22.0473 0.6575 -2.1846 14.5227 0.5355 -1.1792 8.1560 0.0000 0.0000 0.0000 -83.2160 9.7406 21.2202 17.4006 -27.3829 -4.2700 -0.0000 -0.0000 3.5053 2.7506 42.7410 1.8675 -7.1250 0.0000 -0.0000 -46.7664 67.0827 -27.2028 0.0000 0.0000 0.0000 80.9516 5.0297 1.5908 -9.5369 16.0119 -1.3444 0.0000 -0.0000 -12.3612 -16.5946 25.5141 -7.3147 7.1250 -0.0000 -0.0000 7.9293 -3.7230 7.4709
0.7624 17.6116 -28.7052 1.8760 2.6472 2.4841 0.0000 0.0000 0.0000 -25.5671 -2.1315 -12.3647 0.8874 6.0046 16.7977 0.0977 -11.4780 -9.3999 0.4183 4.1514 11.5030 0.0000 0.0000 0.0000 15.8181 -1.7380 -11.4631 -11.0192 -17.9445 62.8438 0.0919 -9.0306 -11.0206 -1.2029 -6.9585 19.5923 -5.2657 0.5995 6.4746 0.3873 0.3862 -1.1254 3.3231 0.3445 -4.8504 -3.5269 -2.4164 -22.3037 0.5923 -2.2904 14.8687 0.4626 -1.2258 8.3152 -0.0000 0.0000 0.0000 -82.9420 8.9905 21.2929 17.3280 -27.2882 -4.2366 -0.0000 -0.0000 3.3866 3.1020 41.7819 2.0680 -7.1250 0.0000 -0.0000 -44.7845 66.5328 -25.3218 -0.0000 0.0000 0.0000 80.9229 5.1486 2.4411 -9.7997 16.4256 -1.4178 0.0000 -0.0000 -13.4861 -16.4077 25.6239 -7.2572 7.1250 -0.0000 -0.0000 8.0512 -3.6400 7.6005
0.7728 17.6034 -28.6151 1.9466 3.1548 2.3929 0.0000 0.0000 0.0000 -25.7329 -2.2174 -11.8945 0.8996 6.0447 16.9142 0.1458 -11.3362 -9.9405 0.3098 3.5786 9.8940 0.0000 0.0000 0.0000 15.7378 -1.6820 -12.5438 -11.3276 -18.0917 63.8409 0.0675 -8.5391 -10.7608 -1.1453 -6.7958 19.1117 -5.4457 0.4773 6.5973 0.4227 0.2006 -1.1966 3.4815 0.2633 -4.9783 -3.5120 -2.3813 -22.3775 0.4850 -2.2230 15.3759 0.4303 -1.2083 8.4980 -0.0000 -0.0000 0.0000 -82.7623 8.6473 21.5374 17.5659 -27.5977 -4.3463 -0.0000 -0.0000 3.6951 3.6776 42.1050 2.4676 -7.1250 0.0000 -0.0000 -44.7806 66.9310 -25.7083 -0.0000 -0.0000 0.0000 80.8000 5.0727 2.6722 -9.8945 16.5744 -1.4447 0.0000 -0.0000 -13.8453 -16.1678 26.1707 -7.2867 7.1250 -0.0000 -0.0000 8.2383 -3.1239 7.8600
0.7937 17.5873 -28.5171 1.9928 3.3313 2.2415 0.0000 0.0000 0.0000 -25.9497 -2.1763 -11.3918 0.9072 6.0695 16.9862 0.1762 -11.2624 -10.2832 0.2314 3.0961 8.5465 0.0000 0.0000 0.0000 15.5867 -1.3767 -13.3590 -11.5935 -18.2135 64.6943 0.0190 -8.0689 -11.1061 -1.0842 -6.6180 18.5883 -5.4521 0.3728 6.3346 0.4109 0.0826 -0.9669 3.4847 0.1888 -4.5763 -3.8278 -2.4288 -22.5202 0.8055 -2.2464 15.3434 0.5859 -1.2024 8.5193 0.0000 0.0000 0.0000 -82.6116 7.4695 21.4503 17.3488 -27.3153 -4.2462 -0.0000 -0.0000 3.9312 4.0162 42.9712 2.7400 -7.1250 0.0000 -0.0000 -45.9848 67.6285 -27.2097 0.0000 0.0000 0.0000 80.8225 5.2654 3.5044 -10.2328 17.1029 -1.5427 0.0000 -0.0000 -14.5250 -16.4485 25.7933 -7.3204 7.1250 -0.0000 -0.0000 8.0395 -3.4626 7.6158
0.8077 17.5886 -28.4186 2.0488 3.6560 2.2073 0.0000 0.0000 0.0000 -26.1277 -2.1167 -11.1725 0.9424 6.1831 17.3167 0.2129 -11.4028 -10.8032 0.2054 2.9181 8.0507 0.0000 0.0000 0.0000 15.4617 -1.1807 -14.3909 -11.7942 -18.3023 65.3350 -0.0308 -7.3086 -11.0907 -0.9531 -6.2169 17.4149 -5.6931 0.2147 6.4456 0.5054 -0.1526 -1.0520 3.7445 0.0856 -4.7049 -3.6877 -2.3657 -22.9010 0.6222 -2.1509 15.7463 0.5096 -1.1711 8.7160 -0.0000 0.0000 0.0000 -82.5528 7.1259 21.3486 17.6297 -27.6804 -4.3758 -0.0000 -0.0000 3.9852 3.3632 44.2519 2.3483 -7.1250 0.0000 -0.0000 -49.0023 68.2653 -29.9785 -0.0000 0.0000 0.0000 80.6266 5.5487 3.0683 -10.0791 16.8632 -1.4978 0.0000 -0.0000 -13.9928 -16.2751 26.4389 -7.4062 7.1250 -0.0000 -0.0000 8.1949 -2.8370 7.8612
0.8304 17.5808 -28.3313 2.0965 4.1113 2.0662 0.0000 0.0000 0.0000 -26.2880 -2.4328 -10.6748 0.9736 6.2817 17.6039 0.2052 -11.5437 -10.7825 0.3772 3.9444 10.9203 0.0000 0.0000 0.0000 15.3019 -1.1520 -15.2738 -11.9544 -18.3713 65.8443 -0.0938 -6.4700 -11.3147 -0.8649 -5.9299 16.5813 -5.6493 0.2563 6.6002 0.4111 -0.1194 -1.4516 3.6195 0.1233 -5.2163 -3.8961 -2.4462 -21.0917 0.8524 -2.3258 15.5901 0.6137 -1.2457 8.3648 -0.0000 0.0000 0.0000 -82.1559 7.3323 22.3068 17.6600 -27.7196 -4.3899 -0.0000 -0.0000 4.4028 4.6674 42.6735 3.1674 -7.1250 0.0000 -0.0000 -44.8280 67.6277 -26.4155 -0.0000 0.0000 0.0000 80.8451 4.4282 2.5017 -10.3595 17.2999 -1.5802 0.0000 -0.0000 -14.0290 -16.0375 26.5348 -7.3177 7.1250 -0.0000 -0.0000 8.3453 -2.7766 8.0179
0.8407 17.5711 -28.2424 2.1439 4.5787 1.9361 0.0000 0.0000 0.0000 -26.4214 -2.5312 -10.2285 0.9984 6.3588 17.8290 0.2191 -11.6362 -10.9951 0.4540 4.3227 11.9864 0.0000 0.0000 0.0000 15.2048 -1.0109 -16.0797 -12.0601 -18.4159 66.1791 -0.1396 -5.6454 -11.2877 -1.0167 -6.4151 17.9937 -5.6573 0.1447 6.8135 0.2934 -0.2909 -1.5249 3.5213 0.0437 -5.3972 -3.3399 -2.5569 -21.0342 0.4997 -2.5765 15.6512 0.3717 -1.3684 8.3686 -0.0000 0.0000 0.0000 -81.6853 6.6353 22.7447 17.6603 -27.7201 -4.3901 -0.0000 -0.0000 4.2004 4.6823 43.4668 3.2249 -7.1250 0.0000 -0.0000 -46.2709 68.1709 -27.9420 -0.0000 0.0000 0.0000 81.0919 4.3232 2.4893 -10.5538 17.6011 -1.6384 0.0000 -0.0000 -14.4240 -16.2284 26.4983 -7.3993 7.1250 -0.0000 -0.0000 8.2277 -2.7842 7.9014
0.8546 17.5612 -28.1454 2.1818 4.9360 1.8741 0.0000 0.0000 0.0000 -26.6103 -2.5489 -9.9065 1.0313 6.4594 18.1235 0.2901 -11.3330 -11.6709 0.2234 3.0424 8.3967 0.0000 0.0000 0.0000 15.1205 -0.8073 -17.0327 -12.1283 -18.4444 66.3950 -0.1965 -4.5986 -11.3390 -0.8503 -5.8813 16.4403 -5.8403 -0.2204 6.6711 0.5420 -0.7623 -1.2031 3.9330 -0.2014 -4.9241 -3.9144 -2.2347 -22.4089 0.7405 -1.9470 16.2945 0.6178 -1.0824 8.8209 -0.0000 0.0000 0.0000 -82.0683 5.5072 21.9411 17.6779 -27.7427 -4.3983 -0.0000 -0.0000 4.3445 4.1829 42.9212 2.8513 -7.1250 0.0000 -0.0000 -45.7360 67.6464 -27.0559 -0.0000 0.0000 0.0000 80.6669 5.0783 3.5408 -10.6933 17.8167 -1.6809 0.0000 -0.0000 -14.4993 -16.7990 26.5961 -7.6974 7.1250 -0.0000 -0.0000 7.8931 -2.5971 7.6008
